<?xml version="1.0" encoding="UTF-8" standalone="no"?>
<!-- Created with Inkscape (http://www.inkscape.org/) -->

<svg
   xmlns:dc="http://purl.org/dc/elements/1.1/"
   xmlns:cc="http://creativecommons.org/ns#"
   xmlns:rdf="http://www.w3.org/1999/02/22-rdf-syntax-ns#"
   xmlns:svg="http://www.w3.org/2000/svg"
   xmlns="http://www.w3.org/2000/svg"
   xmlns:sodipodi="http://sodipodi.sourceforge.net/DTD/sodipodi-0.dtd"
   xmlns:inkscape="http://www.inkscape.org/namespaces/inkscape"
   width="209.49263"
   height="128.61111"
   id="svg3221"
   version="1.1"
   inkscape:version="0.48.1 r9760"
   sodipodi:docname="Documento nuevo 17">
  <defs
     id="defs3223" />
  <sodipodi:namedview
     id="base"
     pagecolor="#ffffff"
     bordercolor="#666666"
     borderopacity="1.0"
     inkscape:pageopacity="0.0"
     inkscape:pageshadow="2"
     inkscape:zoom="3.8410366"
     inkscape:cx="94.33246"
     inkscape:cy="64.305557"
     inkscape:document-units="px"
     inkscape:current-layer="layer1"
     showgrid="false"
     fit-margin-top="0"
     fit-margin-left="0"
     fit-margin-right="0"
     fit-margin-bottom="0"
     inkscape:window-width="1280"
     inkscape:window-height="712"
     inkscape:window-x="0"
     inkscape:window-y="0"
     inkscape:window-maximized="0" />
  <metadata
     id="metadata3226">
    <rdf:RDF>
      <cc:Work
         rdf:about="">
        <dc:format>image/svg+xml</dc:format>
        <dc:type
           rdf:resource="http://purl.org/dc/dcmitype/StillImage" />
        <dc:title></dc:title>
      </cc:Work>
    </rdf:RDF>
  </metadata>
  <g
     inkscape:label="Capa 1"
     inkscape:groupmode="layer"
     id="layer1"
     transform="translate(-275.76015,-550.42699)">
    <path
       style="fill:#000000"
       d="m 281.81473,678.00777 c -0.36327,-0.58777 0.69253,-3.17527 2.3462,-5.75 1.65368,-2.57472 4.69179,-7.47869 6.75135,-10.89771 2.05956,-3.41901 4.19673,-5.93698 4.74928,-5.59549 0.55656,0.34398 0.69702,0.12318 0.31493,-0.49506 -0.37934,-0.61378 0.87687,-3.27081 2.79157,-5.90451 5.87347,-8.07904 9.8227,-15.45496 8.81465,-16.46301 -0.57292,-0.57292 -3.47128,-0.46139 -7.55274,0.29065 -10.04333,1.85056 -14.81561,-0.15282 -16.95156,-7.11619 -0.25306,-0.825 -0.0899,-4.2 0.36255,-7.5 0.80579,-5.87702 0.76172,-6.04792 -2.15039,-8.33799 -1.63517,-1.2859 -3.66535,-3.67677 -4.5115,-5.31305 -1.41121,-2.72896 -1.38889,-3.20839 0.26982,-5.79594 2.12133,-3.30924 15.24796,-14.46021 19.71553,-16.74819 1.70101,-0.87114 3.31775,-1.85861 3.59275,-2.19436 0.88064,-1.07521 13.66066,-8.39329 15,-8.58928 0.275,-0.0402 1.625,-0.8163 3,-1.72457 1.375,-0.90828 4.525,-2.43031 7,-3.3823 2.475,-0.952 4.96568,-2.08442 5.53486,-2.5165 0.56917,-0.43208 4.39417,-1.96887 8.5,-3.41508 4.10582,-1.44621 8.90226,-3.28053 10.65874,-4.07627 8.76382,-3.97024 29.19556,-7.27028 34.8064,-5.62178 2.329,0.68428 1.08274,0.90232 -5.57192,0.97484 -8.56085,0.0933 -18.62727,2.05583 -24.57921,4.79191 -1.73312,0.79671 -3.78062,1.44856 -4.55,1.44856 -0.76938,0 -1.82637,0.37644 -2.34887,0.83654 -0.5225,0.46009 -3.425,1.86542 -6.45,3.12295 -8.29427,3.44802 -24.41906,11.36745 -25.10011,12.32752 -0.33006,0.46528 -1.29716,0.94826 -2.14912,1.07331 -0.85195,0.12504 -2.17165,0.74409 -2.93266,1.37567 -0.76101,0.63158 -2.5242,1.58197 -3.9182,2.11196 -2.39851,0.91192 -13.47176,8.99628 -18.89991,13.79846 -1.375,1.21644 -3.44186,3.03113 -4.59302,4.03265 -4.00457,3.48399 -4.73862,6.06831 -2.71019,9.54147 2.59776,4.44798 3.92172,4.44757 6.19167,-0.002 2.56867,-5.03501 11.53134,-13.21254 18.79006,-17.14403 8.85671,-4.797 22.91922,-9.17672 34.32148,-10.68931 1.925,-0.25537 7.27145,-1.12153 11.88099,-1.9248 8.58811,-1.49658 20.71539,-1.93634 23.53722,-0.8535 3.55663,1.3648 1.03062,1.93378 -9.16821,2.06512 -5.9125,0.0761 -14.23616,0.85971 -18.49701,1.74126 -4.26086,0.88154 -8.98586,1.75479 -10.5,1.94054 -2.75559,0.33805 -8.03882,1.74898 -15.99214,4.27084 -11.85019,3.75748 -23.04009,11.44759 -29.92604,20.56627 -1.83466,2.42953 -4.08499,9.83264 -4.68413,15.4098 -0.74753,6.95854 0.98642,9.39918 6.67767,9.39918 4.755,0 17.28928,-3.21764 18.93149,-4.85984 1.30839,-1.30839 9.66676,-16.30218 13.84323,-24.83289 2.10382,-4.29719 3.47033,-6.02447 4.46439,-5.64301 2.15439,0.82672 1.7481,3.29372 -1.54077,9.35553 -7.67542,14.14684 -9.97148,18.98021 -9.01644,18.98021 1.42318,0 14.51003,-5.31328 26.1274,-10.60776 5.3007,-2.41573 10.06846,-4.39224 10.59501,-4.39224 0.52655,0 1.77435,-0.90276 2.77289,-2.00613 0.99854,-1.10337 2.02552,-1.79614 2.28218,-1.53947 0.25666,0.25666 2.403,-0.86558 4.76964,-2.49387 2.36664,-1.62829 4.55466,-2.96053 4.86226,-2.96053 1.10219,0 11.8853,-7.87683 15.59351,-11.39073 7.54771,-7.15219 11.15071,-16.59188 9.56306,-25.05478 -0.71807,-3.82766 -6.16986,-10.92365 -7.67694,-9.99223 -0.49459,0.30568 -0.89926,0.0489 -0.89926,-0.57063 0,-1.88251 4.27294,-0.005 7.25,3.18484 1.5125,1.62083 2.75,3.59419 2.75,4.38525 0,0.79105 0.4884,1.43828 1.08533,1.43828 0.71377,0 0.92771,2.13963 0.62494,6.25 -0.66356,9.00808 -1.16175,11.12847 -3.49841,14.88991 -2.2401,3.606 -11.62598,12.86009 -13.04324,12.86009 -0.47165,0 -2.13697,1.09938 -3.70071,2.44306 -1.56374,1.34368 -3.18107,2.23422 -3.59407,1.97897 -0.41301,-0.25525 -1.19692,0.33287 -1.74204,1.30694 -0.54511,0.97406 -1.13527,1.61692 -1.31146,1.42856 -0.55517,-0.59352 -5.82034,2.12303 -5.82034,3.00298 0,0.46172 -0.3375,0.76096 -0.75,0.66498 -0.80114,-0.18641 -6.41487,2.2715 -7.25,3.17434 -0.83043,0.89776 -13.55612,7.11006 -15.08057,7.36188 -0.78069,0.12896 -2.37276,0.7595 -3.53795,1.4012 -1.16518,0.6417 -2.40268,0.88255 -2.75,0.53524 -0.34731,-0.34732 -0.63148,-0.10648 -0.63148,0.53518 0,0.64167 -0.81,1.16667 -1.8,1.16667 -0.99,0 -2.2275,0.39452 -2.75,0.87671 -0.5225,0.48219 -3.84294,1.85941 -7.37876,3.06049 -3.53582,1.20107 -7.23624,2.61592 -8.22316,3.14411 -1.50808,0.80709 -9.38787,12.51115 -13.50764,20.06324 -0.63776,1.1691 -1.53776,2.40515 -2,2.74677 -0.46224,0.34163 -1.74044,2.25217 -2.84044,4.24565 -6.4639,11.71421 -14.16412,23.7905 -15.19098,23.82408 -0.65504,0.0214 -1.4882,-0.44195 -1.85146,-1.02973 z m 61.14959,-17.73405 c -15.46601,-8.50516 -8.91958,-29.3788 13.28289,-42.35318 3.61802,-2.11425 7.37286,-3.84409 8.34409,-3.84409 0.97123,0 1.76587,-0.39112 1.76587,-0.86916 0,-0.47803 1.4625,-1.13552 3.25,-1.46108 1.7875,-0.32556 4.375,-0.84224 5.75,-1.14819 1.375,-0.30595 0.25,0.3021 -2.5,1.35123 -6.44981,2.4606 -13.0921,5.58697 -17.5,8.23684 -4.4876,2.69779 -15.5915,14.41736 -16.86245,17.79742 -2.5981,6.9096 -3.14298,14.2304 -1.11093,14.92627 0.53536,0.18334 0.97338,0.95187 0.97338,1.70785 0,0.75598 2.05719,2.58011 4.57154,4.05362 4.18892,2.45486 5.15811,2.62459 11.57949,2.02778 5.24587,-0.48755 8.81088,-1.57589 14.17845,-4.32843 3.94379,-2.02241 7.39552,-3.92844 7.67052,-4.23563 0.275,-0.30719 1.22018,-1.00852 2.10041,-1.55852 4.79576,-2.99659 9.93886,-6.89193 14.23516,-10.78158 l 4.83557,-4.37789 0.21773,-7.56798 c 0.18882,-6.56331 0.59591,-8.07938 3.06656,-11.42027 3.59142,-4.85642 7.1495,-8.35228 8.50093,-8.35228 0.574,0 1.04364,-0.47656 1.04364,-1.05902 0,-0.58246 0.45,-0.7809 1,-0.44098 0.55,0.33992 1,-0.11008 1,-1 0,-0.88992 0.42742,-1.35387 0.94983,-1.03101 0.5224,0.32286 1.44498,-0.33818 2.05017,-1.46899 0.60519,-1.13081 1.52777,-1.79186 2.05017,-1.46899 0.52241,0.32286 0.94983,0.18675 0.94983,-0.30247 0,-1.366 8.59656,-7.22854 10.59959,-7.22854 1.69283,0 10.93159,-2.00789 18.41202,-4.00154 4.34024,-1.15674 7.99064,-0.30232 7.98156,1.86817 -0.004,0.89835 -1.69126,2.7542 -3.75,4.1241 -2.05874,1.3699 -4.10303,3.0574 -4.54286,3.75 -0.43983,0.6926 -1.17046,1.25927 -1.62362,1.25927 -0.45316,0 -2.7933,1.82514 -5.20031,4.05587 -2.40701,2.23073 -7.07638,6.05278 -10.37638,8.49344 -3.3,2.44067 -6.71275,5.11552 -7.58389,5.94413 -0.87114,0.82861 -2.12276,1.50656 -2.78138,1.50656 -0.65863,0 -1.45553,0.67241 -1.7709,1.49426 -0.31537,0.82184 -0.95367,1.25923 -1.41844,0.97199 -0.46477,-0.28725 -1.35408,0.42888 -1.97624,1.59139 -0.62215,1.16251 -1.36879,1.87605 -1.65919,1.58565 -0.2904,-0.2904 -1.71644,0.73609 -3.16898,2.28108 -1.45254,1.54499 -3.87848,3.5958 -5.39098,4.55736 -3.3199,2.1106 -3.47523,4.32658 -0.56281,8.02912 l 2.1872,2.78056 -2.67861,-1.75509 c -1.47323,-0.9653 -2.43091,-2.15587 -2.12818,-2.6457 0.30274,-0.48984 -0.18071,-0.89062 -1.07432,-0.89062 -2.15236,0 -5.79402,1.95459 -6.79297,3.64598 -0.43983,0.74471 -1.40418,1.35402 -2.14301,1.35402 -0.73883,0 -1.60395,0.67917 -1.92249,1.50928 -0.31854,0.8301 -0.92918,1.39596 -1.35698,1.25747 -0.42781,-0.1385 -2.23172,1.04904 -4.00869,2.63897 -1.77697,1.58992 -4.25197,3.45838 -5.5,4.15212 -17.63394,9.80226 -26.40052,11.4576 -35.16199,6.63943 z m 61.89285,-30.41237 c 0.55,-0.44878 2.23695,-1.91197 3.74878,-3.25155 1.51183,-1.33957 4.88683,-3.88491 7.5,-5.65631 4.54498,-3.08092 12.15172,-9.11883 16.85281,-13.37704 3.4115,-3.09012 5.39841,-4.62015 5.39841,-4.15707 0,0.23197 1.6875,-1.22502 3.75,-3.23777 2.0625,-2.01276 4.875,-4.41499 6.25,-5.3383 4.00776,-2.69119 0.86497,-3.91593 -5.32874,-2.07659 -2.76601,0.82141 -5.85028,1.65162 -6.85394,1.84491 -1.00366,0.19329 -2.27146,0.62746 -2.81732,0.96482 -0.54586,0.33736 -1.91415,0.79088 -3.04064,1.00783 -1.12648,0.21694 -3.71567,1.66912 -5.75375,3.22707 -2.03809,1.55795 -5.58779,4.09513 -7.88823,5.63818 -10.04141,6.73538 -15.35505,14.18952 -15.91294,22.32316 -0.24624,3.59008 -0.0435,4.10295 1.40387,3.55043 0.93043,-0.3552 2.14169,-1.013 2.69169,-1.46177 z m -54.80562,21.06394 c -0.93191,-0.52152 -1.69438,-1.40242 -1.69438,-1.95755 0,-0.55684 0.56038,-0.65961 1.25,-0.22924 2.27505,1.41979 4.80837,1.35913 7.79771,-0.18672 1.62376,-0.83968 2.95229,-1.19001 2.95229,-0.7785 0,0.4115 0.70579,-0.25947 1.56842,-1.49105 0.86263,-1.23158 1.93102,-2.01514 2.37419,-1.74125 0.7173,0.44331 3.29185,-1.44887 8.14128,-5.98347 0.87114,-0.81458 2.18364,-1.48106 2.91666,-1.48106 0.73303,0 1.06743,-0.26535 0.74311,-0.58967 -0.32432,-0.32432 0.68675,-1.92532 2.24681,-3.55777 1.56006,-1.63246 3.60783,-4.62961 4.5506,-6.66033 0.94277,-2.03073 2.25408,-4.36723 2.91401,-5.19223 1.64098,-2.05144 3.77713,-9.81526 3.03221,-11.02057 -0.33293,-0.53869 -0.16176,-0.97943 0.38037,-0.97943 1.58097,0 1.79043,3.21839 0.45558,7 -0.6795,1.925 -1.25521,4.2875 -1.27935,5.25 -0.0241,0.9625 -0.44987,1.75 -0.94606,1.75 -0.4962,0 -1.37279,1.35 -1.94799,3 -0.57519,1.65 -1.51064,3 -2.07877,3 -0.56813,0 -1.31532,1.125 -1.66043,2.5 -0.3451,1.375 -1.28023,2.5 -2.07807,2.5 -0.84185,0 -1.15117,0.4845 -0.73708,1.15451 0.42514,0.6879 0.27601,0.88411 -0.36899,0.48548 -0.59538,-0.36797 -1.37023,0.2375 -1.72189,1.34549 -0.35166,1.10799 -1.28406,2.01452 -2.072,2.01452 -0.78793,0 -1.43261,0.62622 -1.43261,1.39159 0,0.76538 -1.0125,1.65132 -2.25,1.96875 -1.2375,0.31744 -3.49683,1.74308 -5.02072,3.1681 -4.66095,4.3585 -12.88043,7.08573 -16.0349,5.3204 z m 89.38476,-3.33973 c -2.43147,-0.76945 -5.45982,-2.60813 -6.72967,-4.08594 l -2.30882,-2.68694 -4.83003,2.07782 c -8.09406,3.48197 -14.7224,4.25337 -18.09626,2.10603 -1.23188,-0.78405 -0.78513,-0.9261 1.88564,-0.59957 3.80648,0.46537 16.11148,-3.54499 18.05225,-5.88346 0.6205,-0.74766 1.26253,-3.54668 1.42674,-6.22004 0.16421,-2.67336 1.30528,-6.83398 2.53571,-9.24582 2.42034,-4.74426 8.95792,-11.97119 10.82931,-11.97119 0.63579,0 1.15599,-0.43192 1.15599,-0.95982 0,-0.5279 2.9724,-1.8779 6.60534,-3 10.74969,-3.32024 15.20775,-2.45625 12.06613,2.33847 -3.9078,5.96406 -13.94351,17.57125 -14.75739,17.06825 -0.50275,-0.31071 -0.91408,0.1063 -0.91408,0.92669 0,0.8204 -0.93391,1.78805 -2.07536,2.15033 -1.14145,0.36228 -1.82701,0.90705 -1.52346,1.21059 0.30354,0.30355 -1.70199,1.97302 -4.45674,3.70993 -2.75474,1.73692 -4.69419,3.47248 -4.30987,3.8568 0.38432,0.38432 0.17376,0.69876 -0.4679,0.69876 -3.82119,0 1.41126,6.17528 6.26457,7.39339 3.17672,0.7973 12.70216,-1.66965 14.88839,-3.85588 0.79325,-0.79325 1.72085,-1.1637 2.06132,-0.82322 0.34048,0.34047 0.61905,0.0459 0.61905,-0.65461 0,-0.71673 0.65065,-1.02398 1.488,-0.70266 0.81841,0.31405 1.38091,0.21351 1.25,-0.22342 -0.1309,-0.43693 2.3495,-3.16589 5.512,-6.06435 3.1625,-2.89847 5.75,-4.72541 5.75,-4.05987 0,2.2062 -12.41629,13.26217 -17.5,15.58272 -7.01418,3.20174 -9.37108,3.51505 -14.42086,1.91701 z m -0.40496,-17.64349 c 6.29288,-4.85492 19.20365,-18.98464 19.29402,-21.11562 0.0573,-1.35103 -4.38484,-0.74393 -8.61671,1.17763 -5.42953,2.46538 -12.93491,9.93867 -15.37058,15.30486 -1.91316,4.21503 -2.60027,8.76751 -1.32328,8.76751 0.36169,0 3.06914,-1.86047 6.01655,-4.13438 z m -59.86168,-20.54873 c 0.72187,-0.28888 1.58437,-0.25335 1.91667,0.0789 0.33229,0.33229 -0.25834,0.56864 -1.3125,0.52522 -1.16495,-0.048 -1.4019,-0.28494 -0.60417,-0.60417 z m 91.3745,-12.78759 c -2.93871,-1.62188 -2.93731,-2.88004 0.004,-3.57439 1.26996,-0.29979 2.30902,-1.19363 2.30902,-1.9863 0,-2.07667 2.73097,-2.30279 7.68262,-0.63612 3.12149,1.05067 4.40992,2.0676 4.65148,3.67134 0.19429,1.28997 -0.0838,1.95988 -0.66459,1.60093 -0.54928,-0.33947 -1.1516,-0.1585 -1.33848,0.40216 -0.52751,1.58253 -10.01306,1.97443 -12.64403,0.52238 z"
       id="path3294"
       inkscape:connector-curvature="0" />
    <path
       style="fill:#ffffff"
       id="path3298"
       d="m 97.514606,60.127887 c 1.110115,-0.06205 2.223168,-0.04746 3.334024,-0.01432 -0.0154,-0.0042 -0.0609,-0.0066 -0.0461,-0.01252 0.0479,-0.01916 0.10433,-0.0097 0.1518,-0.0298 0.17595,-0.07464 0.67918,-0.69105 0.82108,-0.833191 0.81713,-0.734054 1.56703,-0.83843 2.622,-0.5783 0.48576,0.112541 1.0272,0.361777 1.53803,0.244326 0.69799,-0.02841 1.39356,-0.09068 2.09206,-0.106975 0.61289,-0.01178 1.22477,0.02756 1.83725,0.03903 0.31517,0.002 0.15642,0.0017 0.47625,8.23e-4 0.0749,0.01952 -0.20112,1.079252 -0.27606,1.059732 l 0,0 c -0.32978,-0.0036 -0.16596,-0.0012 -0.49145,-0.0073 -0.42295,-0.01065 -0.84073,-0.02582 -1.24913,-0.01994 -0.7007,0.01489 -1.39784,0.06827 -2.09677,0.116803 -0.78976,-0.0032 -1.55134,-0.06145 -2.30569,-0.316408 -0.0969,-0.01986 -0.19382,-0.03972 -0.29073,-0.05959 0.01,-0.01125 0.0444,-0.02917 0.0301,-0.03377 -0.36985,-0.11832 -0.72968,0.161801 -0.99782,0.368708 -0.7344,0.68749 -0.99024,1.228961 -2.09577,1.262681 -1.108388,0.03257 -2.219049,0.04856 -3.326664,-0.01432 -0.07535,-0.01935 0.198258,-1.084988 0.27361,-1.065641 z"
       inkscape:connector-curvature="0"
       transform="translate(275.76015,550.42699)" />
    <path
       style="fill:#000000"
       id="path3300"
       d="m 96.387438,60.106782 c 1.005307,-0.217398 2.032308,-0.318633 3.05986,-0.326352 0.259218,0.04805 0.429036,-0.103221 0.665482,-0.161029 0.39508,-0.257781 0.82082,-0.456482 1.24171,-0.668063 0.27185,-0.211047 0.65137,-0.139077 0.94602,-0.262153 0.0805,-0.03364 0.26004,-0.145662 0.32045,-0.181769 0.62737,-0.503708 1.18555,-0.589714 1.97176,-0.606141 0.36063,0.0087 0.71555,0.09188 1.07453,0.115167 0.17241,0.01119 0.34028,-0.06013 0.51038,-0.09042 0.5001,-0.216913 0.97206,-0.440268 1.51735,-0.516473 0.87248,-0.0084 0.56965,0.0908 1.25382,-0.07232 0.63027,-0.153589 1.28141,-0.129804 1.92406,-0.09795 0.42096,0.02897 0.9586,0.04054 1.30858,0.03988 0.86821,-0.04592 1.13406,0.139549 1.64292,0.754492 0.34929,0.562535 0.51563,1.216166 0.59186,1.868301 -0.008,0.535274 -0.0405,1.036198 0.0741,1.560714 0.0137,0.07636 -1.06626,0.269669 -1.07993,0.193306 l 0,0 c -0.1159,-0.551028 -0.12225,-1.086244 -0.0965,-1.646221 -0.0553,-0.475969 -0.16768,-0.962648 -0.40263,-1.383372 -0.30191,-0.37503 -0.13764,-0.273623 -0.45289,-0.285176 -0.63345,0.0013 -1.26663,-0.0045 -1.89909,-0.04469 -0.36802,-0.01413 -0.75469,-0.05045 -1.14621,0.02329 -0.47882,0.106153 -0.95035,0.251245 -1.4499,0.145197 -0.0239,-0.0051 0.0479,-0.01 0.0718,-0.01499 -0.52435,-0.0142 -0.93314,0.274886 -1.39949,0.482102 -0.83121,0.199523 -1.49382,0.135938 -2.32502,0.03496 0.0986,-0.03526 0.13116,-0.04086 -0.15789,-0.01513 -0.22304,0.01985 -0.41002,0.104221 -0.59638,0.224585 -0.0781,0.05043 -0.152,0.10702 -0.228,0.16053 -0.24515,0.148096 -0.48875,0.337791 -0.76994,0.413101 -0.17063,0.0457 -0.38755,-0.05057 -0.54747,0.08049 -0.41842,0.208446 -0.84155,0.395352 -1.24281,0.635014 -0.30826,0.174926 -0.67124,0.307149 -1.022828,0.398384 -0.984003,0.03354 -1.960205,0.161547 -2.939007,0.261049 -0.07201,0.0296 -0.490653,-0.988716 -0.418647,-1.018319 z"
       inkscape:connector-curvature="0"
       transform="translate(275.76015,550.42699)" />
    <path
       style="fill:#000000"
       id="path3302"
       d="m 129.23561,92.094029 c 0.98849,0.435268 1.91978,1.014292 2.93748,1.380584 0.28869,0.141519 0.1558,0.09691 0.39018,0.15682 0.0675,0.03636 -0.4467,0.991353 -0.51423,0.954991 l 0,0 c -0.30405,-0.09834 -0.15447,-0.05016 -0.44873,-0.144591 -1.04435,-0.358568 -2.02735,-0.879866 -2.98696,-1.421329 -0.0655,-0.044 0.55675,-0.970475 0.62226,-0.926475 z"
       inkscape:connector-curvature="0"
       transform="translate(275.76015,550.42699)" />
  </g>
</svg>
